inDegrees=yes
name=ik_MT_01200627-005-000_orientations_updatedTime
DataType=double
version=3
OpenSimVersion=4.5-2024-07-10-f38669b70
endheader
time	pelvis_tilt	pelvis_list	pelvis_rotation	pelvis_tx	pelvis_ty	pelvis_tz	hip_flexion_r	hip_adduction_r	hip_rotation_r	knee_angle_r	knee_angle_r_beta	ankle_angle_r	subtalar_angle_r	mtp_angle_r	hip_flexion_l	hip_adduction_l	hip_rotation_l	knee_angle_l	knee_angle_l_beta	ankle_angle_l	subtalar_angle_l	mtp_angle_l	lumbar_extension	lumbar_bending	lumbar_rotation	arm_flex_r	arm_add_r	arm_rot_r	elbow_flex_r	pro_sup_r	wrist_flex_r	wrist_dev_r	arm_flex_l	arm_add_l	arm_rot_l	elbow_flex_l	pro_sup_l	wrist_flex_l	wrist_dev_l
1748432669.614544	3.094260548361047	-0.4885987717035395	-172.8251975695705	0	0.9399999943917833	0	79.99999999525214	-7.000000001125469	0	79.99999999792263	1.396263401559207	0	0	0	79.99999999525214	-7.000000004501878	0	79.99999999802388	1.396263401560974	0	0	0	-0.2709716843186972	-1.637473070206783	-0.8278780848283972	10.33609241798781	6.392656883630877	14.72005585066177	0.5874986854652253	7.804530511820084	-17.09806274061567	-16.61114401742762	10.99157897370209	2.809689976526821	32.07797188712593	3.184716426131411	10.26858965330854	-21.8975680749971	-4.639451453265768
1748432669.624544	3.122941917513926	-0.4758277975210847	-172.8104431207752	0	0.9399999943917833	0	79.99999999525214	-7.000000001125469	0	79.99999999792263	1.396263401559207	0	0	0	79.99999999525214	-7.000000004501878	0	79.99999999802388	1.396263401560974	0	0	0	-0.301217406773408	-1.653397805823852	-0.8077948450875303	10.36282286057095	6.364633450204509	15.07483187767142	0.5342104440946965	8.909627716430531	-17.36977623222609	-17.04148540831714	10.80504900641031	2.76103442211255	32.45574637522395	2.762503769327528	10.91089054647103	-21.88576765046366	-4.417963162139338
1748432669.634544	3.140816775962826	-0.4748822699221232	-172.8011135586206	0	0.9399999943917833	0	79.99999999525214	-7.000000001125469	0	79.99999999792263	1.396263401559207	0	0	0	79.99999999525214	-7.000000004501878	0	79.99999999802388	1.396263401560974	0	0	0	-0.3385427247984594	-1.675756778423201	-0.7744442925588242	10.39453734097963	6.362681437988484	15.47927735846982	0.4970717527427687	10.13411028031812	-17.80594774578007	-17.56552399917934	10.66647813291018	2.694413710742873	32.86831942868295	2.370141559137254	11.56888705078171	-21.79603435831295	-4.155673713913396
1748432669.644544	3.141185355989332	-0.4909109472435051	-172.7836193664716	0	0.9399999943917833	0	79.99999999525214	-7.000000001125469	0	79.99999999792263	1.396263401559207	0	0	0	79.99999999525214	-7.000000004501878	0	79.99999999802388	1.396263401560974	0	0	0	-0.4129176851221909	-1.707156462393291	-0.730597173236239	10.45654490693586	6.363667497829617	15.92405897766081	0.45213898001787	11.54318912019209	-18.38042083873825	-18.16536253864894	10.5807812611189	2.611228732402306	33.29262654896465	2.032081690349198	12.20625807197682	-21.63260217659852	-3.894738534263299
1748432669.654544	3.143019319488068	-0.4880402764508653	-172.7623966370016	0	0.9399999943917833	0	79.99999999525214	-7.000000001125469	0	79.99999999792263	1.396263401559207	0	0	0	79.99999999525214	-7.000000004501878	0	79.99999999802388	1.396263401560974	0	0	0	-0.463699838103093	-1.714002748485026	-0.6960192265161165	10.49772629325877	6.371178190981626	16.47105095026912	0.3955580179582227	13.09329532816844	-19.04888120099422	-18.86258465240609	10.51657280978703	2.510462697521645	33.70266681456829	1.83040360315642	12.73734149980225	-21.52694274766114	-3.737684835718662
1748432669.664544	3.158475986842867	-0.4749236360834573	-172.7303482747064	0	0.9399999943917833	0	79.99999999525214	-7.000000001125469	0	79.99999999792263	1.396263401559207	0	0	0	79.99999999525214	-7.000000004501878	0	79.99999999802388	1.396263401560974	0	0	0	-0.5123018166596548	-1.718617406287688	-0.6650778060867949	10.54389462086975	6.387307469382541	17.09920684325228	0.3361886520169867	14.81263369634568	-19.83152470823345	-19.62657235848816	10.49024413499483	2.420082387689333	34.09657644103399	1.660833421249479	13.28406005365446	-21.37072807407684	-3.626335076805082
1748432669.674544	3.175877944612267	-0.4838689396756412	-172.7347885577209	0	0.9399999943917833	0	79.99999999525214	-7.000000001125469	0	79.99999999792263	1.396263401559207	0	0	0	79.99999999525214	-7.000000004501878	0	79.99999999802388	1.396263401560974	0	0	0	-0.5313710023846626	-1.719624348198761	-0.6149602992048089	10.52047773323684	6.336822576528629	17.95067028838059	0.2802864484080407	16.59216112947218	-20.62610209803726	-20.40007210965845	10.47978984792735	2.324029298021382	34.46908623047554	1.577503190078172	13.81564105424225	-21.22674652441869	-3.556560429227728
1748432669.684544	3.195476238547944	-0.4776823614858842	-172.7234793413344	0	0.9399999943917833	0	79.99999999525214	-7.000000001125469	0	79.99999999792263	1.396263401559207	0	0	0	79.99999999525214	-7.000000004501878	0	79.99999999802388	1.396263401560974	0	0	0	-0.5309002944524156	-1.710648594599153	-0.5562038124956278	10.44841164144202	6.230655007473473	18.95435996560179	0.2378032735892468	18.37730600501071	-21.39758249895967	-21.16703043988328	10.48200839054899	2.203443943151339	34.83027105654462	1.531599036475482	14.47774083037129	-21.0466775230112	-3.523367654867478
1748432669.694544	3.212033159962546	-0.4694978288942352	-172.7072731972827	0	0.9399999943917833	0	79.99999999525214	-7.000000001125469	0	79.99999999792263	1.396263401559207	0	0	0	79.99999999525214	-7.000000004501878	0	79.99999999802388	1.396263401560974	0	0	0	-0.5166316851859646	-1.706959253025855	-0.5190409422632694	10.37866054644256	6.109443062474082	20.13235758687292	0.1986960751839154	20.12348294681507	-22.17236191675558	-21.91474399508271	10.54214768260173	2.080598044241299	35.12732647914058	1.384745056725948	15.33178012145333	-20.71646298719242	-3.450201137403129
1748432669.704544	3.233701099113504	-0.4621418474677539	-172.690121112942	0	0.9399999943917833	0	79.99999999525214	-7.000000001125469	0	79.99999999792263	1.396263401559207	0	0	0	79.99999999525214	-7.000000004501878	0	79.99999999802388	1.396263401560974	0	0	0	-0.5002953798316552	-1.699749696972226	-0.4684033171668777	10.30823905501359	5.910262911474617	21.49802332405386	0.1671841618292861	21.80804950185289	-22.86339931937049	-22.603902879344	10.63906240549465	1.927542411703528	35.48907023759288	1.244798105418003	16.26880399104342	-20.31022251922967	-3.355072010458577
1748432669.714544	3.256659637931883	-0.4533500617201147	-172.6721497714513	0	0.9399999943917833	0	79.99999999525214	-7.000000001125469	0	79.99999999792263	1.396263401559207	0	0	0	79.99999999525214	-7.000000004501878	0	79.99999999802388	1.396263401560974	0	0	0	-0.4817750204046903	-1.690593536635328	-0.4170632334355796	10.25400475518877	5.661403284166036	23.03639835287987	0.1426296651469555	23.36674616753461	-23.51011785675217	-23.2416554637361	10.78885182931733	1.74087157156528	35.92253021044935	1.084887827132266	17.21181243007711	-19.81128007710117	-3.219904135893266
1748432669.724544	3.278990104818275	-0.4418773716091249	-172.6522455764947	0	0.9399999943917833	0	79.99999999525214	-7.000000001125469	0	79.99999999792263	1.396263401559207	0	0	0	79.99999999525214	-7.000000004501878	0	79.99999999802388	1.396263401560974	0	0	0	-0.4623639963410438	-1.674648563050085	-0.3754954358054593	10.24060490466974	5.36000879966903	24.69240928129588	0.1233362483068782	24.80807939941188	-24.12370947030782	-23.79498729655247	10.98077193796424	1.513684414995405	36.44857844821138	0.9452675933798027	18.08486377346527	-19.28765994695155	-3.046069351007907
1748432669.734544	3.292591349288459	-0.4298126062040206	-172.6298184881574	0	0.9399999943917833	0	79.99999999525214	-7.000000001125469	0	79.99999999792263	1.396263401559207	0	0	0	79.99999999525214	-7.000000004501878	0	79.99999999802388	1.396263401560974	0	0	0	-0.4415258554738541	-1.652279462948965	-0.3578466342834648	10.27353193707053	5.02084811269982	26.38985996195949	0.1085622203767811	26.18752461940131	-24.71245455474955	-24.23276969649027	11.19923975156331	1.256847235309009	37.04492111708382	0.8309343564872588	18.88623927172792	-18.77472180083354	-2.857295129674316
1748432669.744544	3.301127862299375	-0.4173552571092496	-172.6047461761667	0	0.9399999943917833	0	79.99999999525214	-7.000000001125469	0	79.99999999792263	1.396263401559207	0	0	0	79.99999999525214	-7.000000004501878	0	79.99999999802388	1.396263401560974	0	0	0	-0.4026491630101158	-1.620107271347899	-0.3642930079368011	10.35472029535912	4.633370722741676	28.04658536824352	0.09681653761729615	27.59052762352988	-25.28494042488024	-24.52295299397966	11.42099341847913	0.9747244537552315	37.70066558554209	0.7413923140532509	19.64217676634865	-18.3095322345464	-2.661945077855139
1748432669.754544	3.307062866181219	-0.4059278772335608	-172.5823282930561	0	0.9399999943917833	0	79.99999999525214	-7.000000001125469	0	79.99999999792263	1.396263401559207	0	0	0	79.99999999525214	-7.000000004501878	0	79.99999999802388	1.396263401560974	0	0	0	-0.3461790961360496	-1.580323889504194	-0.3665448214295127	10.4920041897853	4.225119954845639	29.61548274859972	0.08774817055326375	29.03268047466389	-25.87011474286743	-24.68360572668375	11.6520329264208	0.6821086272428577	38.44903722653861	0.6665576234810069	20.34089553430471	-17.91897433028538	-2.493915207546262
1748432669.764544	3.311825183263079	-0.3943034339236032	-172.5629380607481	0	0.9399999943917833	0	79.99999999525214	-7.000000001125469	0	79.99999999792263	1.396263401559207	0	0	0	79.99999999525214	-7.000000004501878	0	79.99999999802388	1.396263401560974	0	0	0	-0.2842175646053795	-1.538751053121493	-0.3540147564153575	10.68486269647869	3.838811578280805	31.07586034679872	0.08023578794298097	30.50867596371133	-26.52459056942025	-24.77752571655034	11.90804391608998	0.3762530225528449	39.26910178458103	0.6019454682349435	21.03690208434306	-17.61745265034573	-2.360259993232695
1748432669.774544	3.316696404747045	-0.372726497691966	-172.5462069044936	0	0.9399999943917833	0	79.99999999525214	-7.000000001125469	0	79.99999999792263	1.396263401559207	0	0	0	79.99999999525214	-7.000000004501878	0	79.99999999802388	1.396263401560974	0	0	0	-0.2273593695166721	-1.499851094184157	-0.339563912053108	10.94588219341066	3.494548838925328	32.4235722579967	0.07353028137815482	31.98933958043653	-27.24017970206475	-24.82974073056285	12.20181848659654	0.03976818235352118	40.1381303138957	0.5465564932247667	21.70531388637909	-17.39254709401163	-2.292651965424001
1748432669.784544	3.329059165731927	-0.3733668254767079	-172.5228101429526	0	0.9399999943917833	0	79.99999999525214	-7.000000001125469	0	79.99999999792263	1.396263401559207	0	0	0	79.99999999525214	-7.000000004501878	0	79.99999999802388	1.396263401560974	0	0	0	-0.1256010422492493	-1.519291276380432	-0.315416214054354	11.21362477692745	3.185463313267499	33.64611453367468	0.0682934629696391	33.4863532024264	-27.96618515247446	-24.87011520535342	12.47283478861052	-0.3592487468206527	41.1224081810284	0.50625337212967	22.29618103388298	-17.18974177322285	-2.32631715320544
1748432669.794544	3.309541856834789	-0.3815747530608868	-172.5087287677584	0	0.9399999943917833	0	79.99999999525214	-7.000000001125469	0	79.99999999792263	1.396263401559207	0	0	0	79.99999999525214	-7.000000004501878	0	79.99999999802388	1.396263401560974	0	0	0	-0.1590315574566937	-1.490184086249012	-0.3252479426357853	11.65905307805803	2.875587616022072	34.83638063660798	0.06356677014115429	34.93910012554326	-28.76263138607109	-24.89473310406441	12.90438788984484	-0.7152871926809958	42.03389633410541	0.4463097701403628	22.90248800272819	-17.0287556814265	-2.416410661321632
